<?xml version="1.0" encoding="utf-8"?>
<!-- Generator: Adobe Illustrator 15.1.0, SVG Export Plug-In . SVG Version: 6.00 Build 0)  -->
<!DOCTYPE svg PUBLIC "-//W3C//DTD SVG 1.1//EN" "http://www.w3.org/Graphics/SVG/1.1/DTD/svg11.dtd">
<svg version="1.1" id="Layer_1" xmlns="http://www.w3.org/2000/svg" xmlns:xlink="http://www.w3.org/1999/xlink" x="0px" y="0px"
	 width="300px" height="300px" viewBox="0 0 300 300" enable-background="new 0 0 300 300" xml:space="preserve">
<g>
	<path fill="#424241" d="M70.159,269.893h7.53c0.956,0,1.549-0.267,1.79-0.804c0.238-0.535,0.478-1.108,0.718-1.703L99,206.476
		c0.245-0.957,0.688-2.571,1.348-4.835c0.653-2.273,1.343-4.596,2.06-6.984c0.833-2.87,1.732-5.912,2.688-9.138
		c0.958,3.342,1.849,6.451,2.688,9.314c0.711,2.39,1.429,4.774,2.146,7.165c0.716,2.391,1.195,4.056,1.434,5.015l19.523,62.88h6.63
		c0.719,0,1.285-0.152,1.702-0.447c0.421-0.298,0.625-0.989,0.625-2.06v-65.083c0-0.017,0.002-0.025,0.002-0.042v-28.08h-8.182
		c-0.038,30.615-0.049,59.854,0.034,61.943c0.176,4.477,0.326,7.794,0.443,9.943c-1.071-3.58-2.355-7.823-3.847-12.72
		c-1.494-4.898-2.928-9.581-4.297-14.061c-1.378-4.478-2.538-8.363-3.495-11.646c-0.956-3.285-1.549-5.163-1.793-5.644
		l-8.703-27.817H99.776l0.655,2.096l-8.772,25.722l-13.436,44.783c0,0-0.063-36.418-0.141-72.601h-7.924v30.402V269.893z"/>
	<path fill="#424241" d="M166.899,269.893c0.951,0,1.547-0.267,1.787-0.804c0.24-0.535,0.479-1.108,0.719-1.703l18.806-60.91
		c0.243-0.957,0.688-2.571,1.351-4.835c0.65-2.273,1.34-4.596,2.053-6.984c0.836-2.87,1.731-5.912,2.69-9.138
		c0.954,3.342,1.851,6.451,2.688,9.314c0.711,2.39,1.431,4.774,2.149,7.165c0.712,2.391,1.192,4.056,1.431,5.015l19.523,62.88h6.63
		c0.72,0,1.283-0.152,1.703-0.447c0.424-0.298,0.625-0.989,0.625-2.06v-65.125v-28.08h-7.929
		c0.076,35.409,0.167,70.819,0.226,71.887c-1.072-3.58-2.355-7.823-3.849-12.72c-1.494-4.898-2.925-9.581-4.296-14.061
		c-1.376-4.478-2.538-8.363-3.497-11.646c-0.951-3.285-1.547-5.163-1.793-5.644l-8.705-27.817h-10.227l0.654,2.099l-8.766,25.719
		l-13.44,44.783c0,0-0.061-36.418-0.142-72.601h-7.925v95.712H166.899z"/>
	<path fill="#424241" d="M118.344,147.082l-8.77,25.718l0.431,1.381h21.658c0.042-35.04,0.117-71.883,0.117-71.883L118.344,147.082z
		"/>
	<path fill="#424241" d="M150.136,29.691c-79.912,0-144.715,64.644-144.999,144.489h65.022v-27.361V81.696
		c0-1.072,0.205-1.761,0.625-2.06c0.418-0.296,0.985-0.448,1.704-0.448h6.629l19.524,62.881c0.239,0.957,0.716,2.623,1.434,5.013
		c0.718,2.392,1.435,4.775,2.147,7.167c0.839,2.863,1.732,5.973,2.688,9.315c0.955-3.227,1.853-6.271,2.687-9.139
		c0.718-2.386,1.406-4.711,2.059-6.987c0.657-2.263,1.103-3.877,1.348-4.833l18.807-60.91c0.237-0.594,0.479-1.168,0.717-1.704
		c0.239-0.537,0.834-0.804,1.789-0.804h7.529v94.993h19.521v-27.361c0-0.015,0.005-0.025,0.005-0.042V81.696
		c0-1.072,0.204-1.761,0.623-2.06c0.418-0.296,0.983-0.448,1.702-0.448h6.628l19.523,62.881c0.24,0.957,0.718,2.623,1.438,5.013
		c0.715,2.392,1.431,4.775,2.145,7.167c0.836,2.863,1.729,5.973,2.685,9.315c0.958-3.227,1.855-6.271,2.69-9.139
		c0.717-2.386,1.408-4.711,2.059-6.987c0.657-2.263,1.102-3.877,1.346-4.833l18.808-60.91c0.237-0.594,0.476-1.168,0.716-1.704
		c0.239-0.537,0.836-0.804,1.791-0.804h7.529v65.307v29.686h66.083C294.849,94.335,230.049,29.691,150.136,29.691z"/>
	<path fill="#424241" d="M89.502,141.44c-0.955-3.284-2.118-7.168-3.492-11.646c-1.372-4.479-2.806-9.162-4.298-14.06
		s-2.776-9.139-3.85-12.719c0.059,1.058,0.148,36,0.221,71.166h21.693L91.3,147.082C91.052,146.606,90.458,144.727,89.502,141.44z"
		/>
	<path fill="#424241" d="M167.291,174.181h21.693l-8.478-27.099c-0.245-0.476-0.838-2.355-1.797-5.642
		c-0.955-3.284-2.113-7.168-3.492-11.646c-1.368-4.479-2.807-9.162-4.3-14.06c-1.489-4.898-2.774-9.139-3.846-12.719
		L167.291,174.181z"/>
	<path fill="#424241" d="M207.556,147.082l-8.775,25.72l0.431,1.379h21.914c-0.076-35.943-0.137-71.883-0.137-71.883
		L207.556,147.082z"/>
</g>
</svg>
