<svg xmlns="http://www.w3.org/2000/svg" width="300" height="300"><path d="M70.159 269.893h7.53c.956 0 1.549-.267 1.79-.804.238-.535.478-1.108.718-1.703l18.803-60.91c.245-.957.688-2.571 1.348-4.835.653-2.273 1.343-4.596 2.06-6.984.833-2.87 1.732-5.912 2.688-9.138.958 3.342 1.849 6.451 2.688 9.314.711 2.39 1.429 4.774 2.146 7.165.716 2.391 1.195 4.056 1.434 5.015l19.523 62.88h6.63c.719 0 1.285-.152 1.702-.447.421-.298.625-.989.625-2.06v-65.083l.002-.042v-28.08h-8.182c-.038 30.615-.049 59.854.034 61.943.176 4.477.326 7.794.443 9.943-1.071-3.58-2.355-7.823-3.847-12.72-1.494-4.898-2.928-9.581-4.297-14.061-1.378-4.478-2.538-8.363-3.495-11.646-.956-3.285-1.549-5.163-1.793-5.644l-8.703-27.817h-10.23l.655 2.096-8.772 25.722-13.436 44.783s-.063-36.418-.141-72.601h-7.924v95.714zm96.74 0c.951 0 1.547-.267 1.787-.804.24-.535.479-1.108.719-1.703l18.806-60.91c.243-.957.688-2.571 1.351-4.835.65-2.273 1.34-4.596 2.053-6.984.836-2.87 1.731-5.912 2.69-9.138.954 3.342 1.851 6.451 2.688 9.314.711 2.39 1.431 4.774 2.149 7.165.712 2.391 1.192 4.056 1.431 5.015l19.523 62.88h6.63c.72 0 1.283-.152 1.703-.447.424-.298.625-.989.625-2.06v-93.205h-7.929c.076 35.409.167 70.819.226 71.887-1.072-3.58-2.355-7.823-3.849-12.72-1.494-4.898-2.925-9.581-4.296-14.061-1.376-4.478-2.538-8.363-3.497-11.646-.951-3.285-1.547-5.163-1.793-5.644l-8.705-27.817h-10.227l.654 2.099-8.766 25.719-13.44 44.783s-.061-36.418-.142-72.601h-7.925v95.712h7.534zm-48.555-122.811l-8.77 25.718.431 1.381h21.658c.042-35.04.117-71.883.117-71.883l-13.436 44.784zm31.792-117.391c-79.912 0-144.715 64.644-144.999 144.489h65.022v-92.484c0-1.072.205-1.761.625-2.06.418-.296.985-.448 1.704-.448h6.629l19.524 62.881c.239.957.716 2.623 1.434 5.013.718 2.392 1.435 4.775 2.147 7.167.839 2.863 1.732 5.973 2.688 9.315.955-3.227 1.853-6.271 2.687-9.139.718-2.386 1.406-4.711 2.059-6.987.657-2.263 1.103-3.877 1.348-4.833l18.807-60.91c.237-.594.479-1.168.717-1.704.239-.537.834-.804 1.789-.804h7.529v94.993h19.521v-27.361l.005-.042v-65.081c0-1.072.204-1.761.623-2.06.418-.296.983-.448 1.702-.448h6.628l19.523 62.881c.24.957.718 2.623 1.438 5.013l2.145 7.167c.836 2.863 1.729 5.973 2.685 9.315.958-3.227 1.855-6.271 2.69-9.139.717-2.386 1.408-4.711 2.059-6.987.657-2.263 1.102-3.877 1.346-4.833l18.808-60.91c.237-.594.476-1.168.716-1.704.239-.537.836-.804 1.791-.804h7.529v94.993h66.083c-.289-79.845-65.089-144.489-145.002-144.489zm-60.634 111.749c-.955-3.284-2.118-7.168-3.492-11.646-1.372-4.479-2.806-9.162-4.298-14.06s-2.776-9.139-3.85-12.719c.059 1.058.148 36 .221 71.166h21.693l-8.476-27.099c-.248-.476-.842-2.355-1.798-5.642zm77.789 32.741h21.693l-8.478-27.099c-.245-.476-.838-2.355-1.797-5.642-.955-3.284-2.113-7.168-3.492-11.646-1.368-4.479-2.807-9.162-4.3-14.06-1.489-4.898-2.774-9.139-3.846-12.719l.22 71.166zm40.265-27.099l-8.775 25.72.431 1.379h21.914c-.076-35.943-.137-71.883-.137-71.883l-13.433 44.784z" fill="#424241"/></svg>