<svg xmlns="http://www.w3.org/2000/svg" width="60" height="60"><circle cx="30" cy="30" r="30"/><path d="M37.28 17.758h3.634v1.399h-2.834v21.685h2.938v1.4h-6.959v-1.4h2.622v-18.712l.018-.245.035-.437.018-.438v-.279l-.264.401-.37.508c-.518.699-1.217 1.621-2.098 2.763-.881 1.143-1.827 2.367-2.837 3.674-1.01 1.304-2.04 2.628-3.084 3.968-1.046 1.341-1.993 2.559-2.838 3.655-1.617-2.099-2.987-3.883-4.112-5.352-1.124-1.469-2.102-2.746-2.935-3.83-.832-1.084-1.557-2.022-2.178-2.815l-1.811-2.309-.421-.665c0 .256.006.495.019.717.011.221.028.448.051.682v18.711h2.729v1.4h-6.959v-1.4h2.832v-21.682h-2.832v-1.399h3.632c.258.35.643.856 1.157 1.521l1.769 2.292c.667.863 1.383 1.801 2.155 2.815.771 1.015 1.56 2.041 2.365 3.079.807 1.037 1.601 2.06 2.384 3.062.783 1.002 1.5 1.936 2.155 2.798 2.014-2.591 4.018-5.184 6.009-7.784 1.992-2.601 3.995-5.195 6.01-7.783zm9.339 0h3.635v1.399h-2.835v21.685h2.938v1.4h-6.959v-1.4h2.621v-18.712l.018-.245.037-.437.017-.438v-.279l-.265.401-.37.508c-.519.699-1.216 1.621-2.097 2.763-.88 1.143-1.827 2.367-2.836 3.674-1.011 1.304-2.04 2.628-3.085 3.968-1.046 1.341-1.992 2.559-2.837 3.655-1.617-2.099-2.987-3.883-4.112-5.352-1.125-1.469-2.102-2.746-2.935-3.83-.831-1.084-1.557-2.022-2.177-2.815l-1.811-2.309-.421-.665c0 .256.005.495.018.717l.052.682v18.711h2.729v1.4h-6.96v-1.4h2.833v-21.682h-2.833v-1.399h3.632c.258.35.642.856 1.157 1.521l1.769 2.292c.666.863 1.383 1.801 2.155 2.815s1.56 2.041 2.366 3.079c.807 1.037 1.601 2.06 2.384 3.062s1.5 1.936 2.155 2.798c2.014-2.591 4.018-5.184 6.009-7.784 1.991-2.601 3.993-5.195 6.008-7.783z" fill="#fff"/></svg>